<mxfile host="Electron" agent="Mozilla/5.0 (Windows NT 10.0; Win64; x64) AppleWebKit/537.36 (KHTML, like Gecko) draw.io/28.1.2 Chrome/138.0.7204.243 Electron/37.4.0 Safari/537.36" version="28.1.2">
  <diagram name="Arquitetura" id="6eiHsy1GUWsmp25d7mev">
    <mxGraphModel dx="1410" dy="825" grid="1" gridSize="13" guides="1" tooltips="1" connect="1" arrows="1" fold="1" page="1" pageScale="1" pageWidth="2336" pageHeight="1654" math="0" shadow="0">
      <root>
        <mxCell id="0" />
        <mxCell id="1" parent="0" />
        <mxCell id="gAKbrVOGRJo8H8WcL9k_-1" value="AWS Cloud" style="points=[[0,0],[0.25,0],[0.5,0],[0.75,0],[1,0],[1,0.25],[1,0.5],[1,0.75],[1,1],[0.75,1],[0.5,1],[0.25,1],[0,1],[0,0.75],[0,0.5],[0,0.25]];outlineConnect=0;gradientColor=none;html=1;whiteSpace=wrap;fontSize=12;fontStyle=0;container=1;pointerEvents=0;collapsible=0;recursiveResize=0;shape=mxgraph.aws4.group;grIcon=mxgraph.aws4.group_aws_cloud_alt;strokeColor=#232F3E;fillColor=default;verticalAlign=top;align=left;spacingLeft=30;fontColor=#232F3E;dashed=0;" vertex="1" parent="1">
          <mxGeometry x="52" y="208" width="1040" height="1144" as="geometry" />
        </mxCell>
        <mxCell id="B4uwOqjNWGOyXuzbY5WB-1" value="Cadastro de Modalidades" style="sketch=0;points=[[0,0,0],[0.25,0,0],[0.5,0,0],[0.75,0,0],[1,0,0],[0,1,0],[0.25,1,0],[0.5,1,0],[0.75,1,0],[1,1,0],[0,0.25,0],[0,0.5,0],[0,0.75,0],[1,0.25,0],[1,0.5,0],[1,0.75,0]];outlineConnect=0;fontColor=#232F3E;fillColor=#ED7100;strokeColor=#ffffff;dashed=0;verticalLabelPosition=bottom;verticalAlign=top;align=center;html=1;fontSize=12;fontStyle=0;aspect=fixed;shape=mxgraph.aws4.resourceIcon;resIcon=mxgraph.aws4.lambda;" parent="gAKbrVOGRJo8H8WcL9k_-1" vertex="1">
          <mxGeometry x="273" y="442" width="78" height="78" as="geometry" />
        </mxCell>
        <mxCell id="dy3UZIhFqLNZOBFbhARj-37" style="edgeStyle=orthogonalEdgeStyle;rounded=0;orthogonalLoop=1;jettySize=auto;html=1;" parent="1" source="dy3UZIhFqLNZOBFbhARj-1" target="dy3UZIhFqLNZOBFbhARj-36" edge="1">
          <mxGeometry relative="1" as="geometry" />
        </mxCell>
        <mxCell id="dy3UZIhFqLNZOBFbhARj-1" value="Tabela DynamoDB" style="sketch=0;points=[[0,0,0],[0.25,0,0],[0.5,0,0],[0.75,0,0],[1,0,0],[0,1,0],[0.25,1,0],[0.5,1,0],[0.75,1,0],[1,1,0],[0,0.25,0],[0,0.5,0],[0,0.75,0],[1,0.25,0],[1,0.5,0],[1,0.75,0]];outlineConnect=0;fontColor=#232F3E;fillColor=#C925D1;strokeColor=#ffffff;dashed=0;verticalLabelPosition=bottom;verticalAlign=top;align=center;html=1;fontSize=12;fontStyle=0;aspect=fixed;shape=mxgraph.aws4.resourceIcon;resIcon=mxgraph.aws4.dynamodb;" parent="1" vertex="1">
          <mxGeometry x="754" y="741" width="78" height="78" as="geometry" />
        </mxCell>
        <mxCell id="dy3UZIhFqLNZOBFbhARj-2" value="Cadastro de Atletas" style="sketch=0;points=[[0,0,0],[0.25,0,0],[0.5,0,0],[0.75,0,0],[1,0,0],[0,1,0],[0.25,1,0],[0.5,1,0],[0.75,1,0],[1,1,0],[0,0.25,0],[0,0.5,0],[0,0.75,0],[1,0.25,0],[1,0.5,0],[1,0.75,0]];outlineConnect=0;fontColor=#232F3E;fillColor=#ED7100;strokeColor=#ffffff;dashed=0;verticalLabelPosition=bottom;verticalAlign=top;align=center;html=1;fontSize=12;fontStyle=0;aspect=fixed;shape=mxgraph.aws4.resourceIcon;resIcon=mxgraph.aws4.lambda;" parent="1" vertex="1">
          <mxGeometry x="325" y="260" width="78" height="78" as="geometry" />
        </mxCell>
        <mxCell id="dy3UZIhFqLNZOBFbhARj-3" value="Cadastro de Equipes" style="sketch=0;points=[[0,0,0],[0.25,0,0],[0.5,0,0],[0.75,0,0],[1,0,0],[0,1,0],[0.25,1,0],[0.5,1,0],[0.75,1,0],[1,1,0],[0,0.25,0],[0,0.5,0],[0,0.75,0],[1,0.25,0],[1,0.5,0],[1,0.75,0]];outlineConnect=0;fontColor=#232F3E;fillColor=#ED7100;strokeColor=#ffffff;dashed=0;verticalLabelPosition=bottom;verticalAlign=top;align=center;html=1;fontSize=12;fontStyle=0;aspect=fixed;shape=mxgraph.aws4.resourceIcon;resIcon=mxgraph.aws4.lambda;" parent="1" vertex="1">
          <mxGeometry x="325" y="390" width="78" height="78" as="geometry" />
        </mxCell>
        <mxCell id="dy3UZIhFqLNZOBFbhARj-8" value="Cadastro de Competicoes" style="sketch=0;points=[[0,0,0],[0.25,0,0],[0.5,0,0],[0.75,0,0],[1,0,0],[0,1,0],[0.25,1,0],[0.5,1,0],[0.75,1,0],[1,1,0],[0,0.25,0],[0,0.5,0],[0,0.75,0],[1,0.25,0],[1,0.5,0],[1,0.75,0]];outlineConnect=0;fontColor=#232F3E;fillColor=#ED7100;strokeColor=#ffffff;dashed=0;verticalLabelPosition=bottom;verticalAlign=top;align=center;html=1;fontSize=12;fontStyle=0;aspect=fixed;shape=mxgraph.aws4.resourceIcon;resIcon=mxgraph.aws4.lambda;" parent="1" vertex="1">
          <mxGeometry x="325" y="520" width="78" height="78" as="geometry" />
        </mxCell>
        <mxCell id="dy3UZIhFqLNZOBFbhARj-16" style="edgeStyle=orthogonalEdgeStyle;rounded=0;orthogonalLoop=1;jettySize=auto;html=1;" parent="1" source="dy3UZIhFqLNZOBFbhARj-10" target="dy3UZIhFqLNZOBFbhARj-1" edge="1">
          <mxGeometry relative="1" as="geometry" />
        </mxCell>
        <mxCell id="dy3UZIhFqLNZOBFbhARj-10" value="" style="rounded=0;whiteSpace=wrap;html=1;" parent="1" vertex="1">
          <mxGeometry x="546" y="260" width="26" height="1040" as="geometry" />
        </mxCell>
        <mxCell id="dy3UZIhFqLNZOBFbhARj-17" value="Cadastro WOD das Competicoes" style="sketch=0;points=[[0,0,0],[0.25,0,0],[0.5,0,0],[0.75,0,0],[1,0,0],[0,1,0],[0.25,1,0],[0.5,1,0],[0.75,1,0],[1,1,0],[0,0.25,0],[0,0.5,0],[0,0.75,0],[1,0.25,0],[1,0.5,0],[1,0.75,0]];outlineConnect=0;fontColor=#232F3E;fillColor=#ED7100;strokeColor=#ffffff;dashed=0;verticalLabelPosition=bottom;verticalAlign=top;align=center;html=1;fontSize=12;fontStyle=0;aspect=fixed;shape=mxgraph.aws4.resourceIcon;resIcon=mxgraph.aws4.lambda;" parent="1" vertex="1">
          <mxGeometry x="325" y="767" width="78" height="78" as="geometry" />
        </mxCell>
        <mxCell id="dy3UZIhFqLNZOBFbhARj-22" style="edgeStyle=orthogonalEdgeStyle;rounded=0;orthogonalLoop=1;jettySize=auto;html=1;entryX=0.5;entryY=0;entryDx=0;entryDy=0;entryPerimeter=0;" parent="1" source="dy3UZIhFqLNZOBFbhARj-18" target="dy3UZIhFqLNZOBFbhARj-21" edge="1">
          <mxGeometry relative="1" as="geometry" />
        </mxCell>
        <mxCell id="dy3UZIhFqLNZOBFbhARj-18" value="Cadastro Resultado Equipe WOD" style="sketch=0;points=[[0,0,0],[0.25,0,0],[0.5,0,0],[0.75,0,0],[1,0,0],[0,1,0],[0.25,1,0],[0.5,1,0],[0.75,1,0],[1,1,0],[0,0.25,0],[0,0.5,0],[0,0.75,0],[1,0.25,0],[1,0.5,0],[1,0.75,0]];outlineConnect=0;fontColor=#232F3E;fillColor=#ED7100;strokeColor=#ffffff;dashed=0;verticalLabelPosition=bottom;verticalAlign=top;align=center;html=1;fontSize=12;fontStyle=0;aspect=fixed;shape=mxgraph.aws4.resourceIcon;resIcon=mxgraph.aws4.lambda;" parent="1" vertex="1">
          <mxGeometry x="325" y="884" width="78" height="78" as="geometry" />
        </mxCell>
        <mxCell id="dy3UZIhFqLNZOBFbhARj-19" value="Atualiza Classificação do WOD" style="sketch=0;points=[[0,0,0],[0.25,0,0],[0.5,0,0],[0.75,0,0],[1,0,0],[0,1,0],[0.25,1,0],[0.5,1,0],[0.75,1,0],[1,1,0],[0,0.25,0],[0,0.5,0],[0,0.75,0],[1,0.25,0],[1,0.5,0],[1,0.75,0]];outlineConnect=0;fontColor=#232F3E;fillColor=#ED7100;strokeColor=#ffffff;dashed=0;verticalLabelPosition=bottom;verticalAlign=top;align=center;html=1;fontSize=12;fontStyle=0;aspect=fixed;shape=mxgraph.aws4.resourceIcon;resIcon=mxgraph.aws4.lambda;" parent="1" vertex="1">
          <mxGeometry x="325" y="1040" width="78" height="78" as="geometry" />
        </mxCell>
        <mxCell id="dy3UZIhFqLNZOBFbhARj-20" value="Atualiza Classificação da Competicao" style="sketch=0;points=[[0,0,0],[0.25,0,0],[0.5,0,0],[0.75,0,0],[1,0,0],[0,1,0],[0.25,1,0],[0.5,1,0],[0.75,1,0],[1,1,0],[0,0.25,0],[0,0.5,0],[0,0.75,0],[1,0.25,0],[1,0.5,0],[1,0.75,0]];outlineConnect=0;fontColor=#232F3E;fillColor=#ED7100;strokeColor=#ffffff;dashed=0;verticalLabelPosition=bottom;verticalAlign=top;align=center;html=1;fontSize=12;fontStyle=0;aspect=fixed;shape=mxgraph.aws4.resourceIcon;resIcon=mxgraph.aws4.lambda;" parent="1" vertex="1">
          <mxGeometry x="325" y="1196" width="78" height="78" as="geometry" />
        </mxCell>
        <mxCell id="dy3UZIhFqLNZOBFbhARj-21" value="Fila" style="sketch=0;points=[[0,0,0],[0.25,0,0],[0.5,0,0],[0.75,0,0],[1,0,0],[0,1,0],[0.25,1,0],[0.5,1,0],[0.75,1,0],[1,1,0],[0,0.25,0],[0,0.5,0],[0,0.75,0],[1,0.25,0],[1,0.5,0],[1,0.75,0]];outlineConnect=0;fontColor=#232F3E;fillColor=#E7157B;strokeColor=#ffffff;dashed=0;verticalLabelPosition=bottom;verticalAlign=top;align=center;html=1;fontSize=12;fontStyle=0;aspect=fixed;shape=mxgraph.aws4.resourceIcon;resIcon=mxgraph.aws4.sqs;" parent="1" vertex="1">
          <mxGeometry x="91" y="962" width="78" height="78" as="geometry" />
        </mxCell>
        <mxCell id="dy3UZIhFqLNZOBFbhARj-23" style="edgeStyle=orthogonalEdgeStyle;rounded=0;orthogonalLoop=1;jettySize=auto;html=1;entryX=0;entryY=0.25;entryDx=0;entryDy=0;entryPerimeter=0;" parent="1" source="dy3UZIhFqLNZOBFbhARj-21" target="dy3UZIhFqLNZOBFbhARj-19" edge="1">
          <mxGeometry relative="1" as="geometry" />
        </mxCell>
        <mxCell id="dy3UZIhFqLNZOBFbhARj-26" style="edgeStyle=orthogonalEdgeStyle;rounded=0;orthogonalLoop=1;jettySize=auto;html=1;" parent="1" source="dy3UZIhFqLNZOBFbhARj-24" target="dy3UZIhFqLNZOBFbhARj-20" edge="1">
          <mxGeometry relative="1" as="geometry" />
        </mxCell>
        <mxCell id="dy3UZIhFqLNZOBFbhARj-24" value="Fila" style="sketch=0;points=[[0,0,0],[0.25,0,0],[0.5,0,0],[0.75,0,0],[1,0,0],[0,1,0],[0.25,1,0],[0.5,1,0],[0.75,1,0],[1,1,0],[0,0.25,0],[0,0.5,0],[0,0.75,0],[1,0.25,0],[1,0.5,0],[1,0.75,0]];outlineConnect=0;fontColor=#232F3E;fillColor=#E7157B;strokeColor=#ffffff;dashed=0;verticalLabelPosition=bottom;verticalAlign=top;align=center;html=1;fontSize=12;fontStyle=0;aspect=fixed;shape=mxgraph.aws4.resourceIcon;resIcon=mxgraph.aws4.sqs;" parent="1" vertex="1">
          <mxGeometry x="104" y="1196" width="78" height="78" as="geometry" />
        </mxCell>
        <mxCell id="dy3UZIhFqLNZOBFbhARj-25" style="edgeStyle=orthogonalEdgeStyle;rounded=0;orthogonalLoop=1;jettySize=auto;html=1;entryX=0.5;entryY=0;entryDx=0;entryDy=0;entryPerimeter=0;exitX=0;exitY=0.75;exitDx=0;exitDy=0;exitPerimeter=0;" parent="1" source="dy3UZIhFqLNZOBFbhARj-19" target="dy3UZIhFqLNZOBFbhARj-24" edge="1">
          <mxGeometry relative="1" as="geometry" />
        </mxCell>
        <mxCell id="dy3UZIhFqLNZOBFbhARj-27" style="edgeStyle=orthogonalEdgeStyle;rounded=0;orthogonalLoop=1;jettySize=auto;html=1;" parent="1" source="dy3UZIhFqLNZOBFbhARj-17" edge="1">
          <mxGeometry relative="1" as="geometry">
            <mxPoint x="550" y="806" as="targetPoint" />
          </mxGeometry>
        </mxCell>
        <mxCell id="dy3UZIhFqLNZOBFbhARj-28" style="edgeStyle=orthogonalEdgeStyle;rounded=0;orthogonalLoop=1;jettySize=auto;html=1;entryX=0;entryY=0.338;entryDx=0;entryDy=0;entryPerimeter=0;" parent="1" source="dy3UZIhFqLNZOBFbhARj-8" edge="1">
          <mxGeometry relative="1" as="geometry">
            <mxPoint x="546" y="559.52" as="targetPoint" />
            <Array as="points">
              <mxPoint x="475" y="559" />
            </Array>
          </mxGeometry>
        </mxCell>
        <mxCell id="dy3UZIhFqLNZOBFbhARj-29" style="edgeStyle=orthogonalEdgeStyle;rounded=0;orthogonalLoop=1;jettySize=auto;html=1;entryX=0.115;entryY=0.163;entryDx=0;entryDy=0;entryPerimeter=0;" parent="1" source="dy3UZIhFqLNZOBFbhARj-3" target="dy3UZIhFqLNZOBFbhARj-10" edge="1">
          <mxGeometry relative="1" as="geometry">
            <mxPoint x="545.3240000000001" y="429.52" as="targetPoint" />
          </mxGeometry>
        </mxCell>
        <mxCell id="dy3UZIhFqLNZOBFbhARj-31" style="edgeStyle=orthogonalEdgeStyle;rounded=0;orthogonalLoop=1;jettySize=auto;html=1;entryX=0.192;entryY=0.788;entryDx=0;entryDy=0;entryPerimeter=0;" parent="1" source="dy3UZIhFqLNZOBFbhARj-19" target="dy3UZIhFqLNZOBFbhARj-10" edge="1">
          <mxGeometry relative="1" as="geometry">
            <mxPoint x="545" y="1079" as="targetPoint" />
            <Array as="points" />
          </mxGeometry>
        </mxCell>
        <mxCell id="dy3UZIhFqLNZOBFbhARj-33" style="edgeStyle=orthogonalEdgeStyle;rounded=0;orthogonalLoop=1;jettySize=auto;html=1;entryX=0.077;entryY=0.039;entryDx=0;entryDy=0;entryPerimeter=0;" parent="1" source="dy3UZIhFqLNZOBFbhARj-2" target="dy3UZIhFqLNZOBFbhARj-10" edge="1">
          <mxGeometry relative="1" as="geometry" />
        </mxCell>
        <mxCell id="dy3UZIhFqLNZOBFbhARj-34" style="edgeStyle=orthogonalEdgeStyle;rounded=0;orthogonalLoop=1;jettySize=auto;html=1;entryX=-0.077;entryY=0.638;entryDx=0;entryDy=0;entryPerimeter=0;" parent="1" source="dy3UZIhFqLNZOBFbhARj-18" target="dy3UZIhFqLNZOBFbhARj-10" edge="1">
          <mxGeometry relative="1" as="geometry" />
        </mxCell>
        <mxCell id="dy3UZIhFqLNZOBFbhARj-35" style="edgeStyle=orthogonalEdgeStyle;rounded=0;orthogonalLoop=1;jettySize=auto;html=1;entryX=0.115;entryY=0.943;entryDx=0;entryDy=0;entryPerimeter=0;" parent="1" source="dy3UZIhFqLNZOBFbhARj-20" target="dy3UZIhFqLNZOBFbhARj-10" edge="1">
          <mxGeometry relative="1" as="geometry">
            <mxPoint x="545" y="1235" as="targetPoint" />
          </mxGeometry>
        </mxCell>
        <mxCell id="dy3UZIhFqLNZOBFbhARj-36" value="Analitics" style="sketch=0;outlineConnect=0;fontColor=#232F3E;gradientColor=none;fillColor=#7AA116;strokeColor=none;dashed=0;verticalLabelPosition=bottom;verticalAlign=top;align=center;html=1;fontSize=12;fontStyle=0;aspect=fixed;pointerEvents=1;shape=mxgraph.aws4.s3_tables;" parent="1" vertex="1">
          <mxGeometry x="949" y="741" width="78" height="78" as="geometry" />
        </mxCell>
        <mxCell id="B4uwOqjNWGOyXuzbY5WB-2" style="edgeStyle=orthogonalEdgeStyle;rounded=0;orthogonalLoop=1;jettySize=auto;html=1;entryX=-0.115;entryY=0.413;entryDx=0;entryDy=0;entryPerimeter=0;" parent="1" source="B4uwOqjNWGOyXuzbY5WB-1" target="dy3UZIhFqLNZOBFbhARj-10" edge="1">
          <mxGeometry relative="1" as="geometry" />
        </mxCell>
      </root>
    </mxGraphModel>
  </diagram>
</mxfile>
